# xmcd
#
# Track frame offsets: 
#        150
#        14466
#        29174
#        50690
#        63355
#        82103
#        109608
#        125101
#        137453
#        161253
#        185248
#        204080
#        235289
#        248763
#
# Disc length: 3461 seconds
#
# Revision: 5
# Processed by: cddbd v1.5PL3 Copyright (c) Steve Scherf et al.
# Submitted via: ExactAudioCopy v0.90b4
#
DISCID=c40d830e
DTITLE=Sonny Terry and Brownie McGhee - Absolutely The Best
DYEAR=2000
DGENRE=Blues
TTITLE0=Walk On
TTITLE1=Down By The Riverside
TTITLE2=Blues For The Lowland
TTITLE3=Right On That Shore (With Lightnin' Hopkins and Big Joe Williams
TTITLE3=)
TTITLE4=I'm A Stranger Here
TTITLE5=Blowin' The Fuses
TTITLE6=Trouble In Mind
TTITLE7=Po' Boy
TTITLE8=Early Morning Blues (With Lightnin' Hopkins and Big Joe Williams
TTITLE8=)
TTITLE9=Drinkin's In The Blues
TTITLE10=In The Evening
TTITLE11=Blues For Gamblers (With Lightnin' Hopkins and Big Joe Williams
TTITLE11=)
TTITLE12=Dirty Mistreater
TTITLE13=What A Beautiful City
EXTD=
EXTT0=
EXTT1=
EXTT2=
EXTT3=
EXTT4=
EXTT5=
EXTT6=
EXTT7=
EXTT8=
EXTT9=
EXTT10=
EXTT11=
EXTT12=
EXTT13=
PLAYORDER=
